<svg aria-hidden="true" style="position: absolute; width: 0; height: 0; overflow: hidden;" version="1.1" xmlns="http://www.w3.org/2000/svg" xmlns:xlink="http://www.w3.org/1999/xlink">
<defs>
<symbol id="icon-antena-1" viewBox="0 0 32 32">
<path fill="#212121" style="fill: var(--color1, #212121)" d="M30.773 22.098l-8.443-8.505 0.937-4.615c0.225 0.090 0.485 0.144 0.758 0.146h0.007c1.192 0.014 2.17-0.941 2.184-2.133s-0.941-2.17-2.133-2.184c-1.192-0.014-2.17 0.941-2.184 2.133-0 0.008-0 0.017-0 0.026 0 0.259 0.046 0.508 0.13 0.738l-0.005-0.015-4.96 0.605-8.091-8.133c-0.096-0.098-0.229-0.159-0.376-0.16h-0c-0.146 0.001-0.278 0.060-0.373 0.155l-1.513 1.504c-0.208 0.208-0.208 0.546 0 0.754l0.814 0.826c-3.153 5.798-2.129 12.978 2.519 17.663 0.043 0.041 0.092 0.074 0.146 0.098-0.032 0.164-0.051 0.353-0.052 0.546v6.188h-6.4c-1.472 0.002-2.665 1.195-2.667 2.667v1.067c0 0.295 0.239 0.533 0.533 0.533h24.533c0.295 0 0.533-0.239 0.533-0.533v-1.067c-0.002-1.472-1.195-2.665-2.667-2.667h-6.4v-2.742c0.915 0.201 1.968 0.317 3.047 0.32h0.002c2.58-0.003 5.005-0.663 7.117-1.822l-0.077 0.039 0.818 0.823c0.099 0.101 0.235 0.159 0.377 0.16 0.146-0.001 0.278-0.060 0.373-0.155l1.513-1.504c0.208-0.208 0.208-0.546 0-0.754zM23.28 6.233c0.418-0.415 1.093-0.414 1.508 0.004s0.414 1.093-0.004 1.508c-0.193 0.192-0.459 0.31-0.752 0.31-0 0-0 0-0 0h-0.003c-0.589-0.003-1.064-0.483-1.061-1.072 0.002-0.294 0.122-0.559 0.314-0.751l0-0h-0.002zM22.024 9.738l-0.598 2.946-1.175-1.182 1.774-1.763zM21.419 8.836l-1.92 1.909-1.485-1.493 3.405-0.415zM24.004 28.8c0.884 0 1.6 0.716 1.6 1.6v0.533h-23.467v-0.533c0-0.884 0.716-1.6 1.6-1.6h20.267zM16.537 26.667v1.067h-5.333v-1.067h5.333zM11.204 25.6v-4.053c0-1.294 1.196-2.347 2.667-2.347s2.667 1.053 2.667 2.347v4.053h-5.333zM17.604 23.904v-2.357c0-1.882-1.675-3.413-3.733-3.413-0.017-0-0.038-0-0.058-0-1.353 0-2.54 0.707-3.213 1.771l-0.009 0.016c-4.058-4.274-4.971-10.645-2.279-15.887l18.602 18.708c-1.823 0.947-3.98 1.502-6.266 1.502-1.079 0-2.128-0.124-3.136-0.357l0.093 0.018zM28.893 23.22l-21.057-21.181 0.755-0.752 7.935 7.98c0.004 0 0.006 0.007 0.010 0.010l13.115 13.191-0.757 0.752z"></path>
<path fill="#2196f3" style="fill: var(--color2, #2196f3)" d="M13.876 20.267h-0.005c-0.884-0.001-1.601 0.714-1.602 1.598s0.714 1.601 1.598 1.602h0.005c0.884 0.001 1.601-0.714 1.602-1.598s-0.714-1.601-1.598-1.602zM14.249 22.245c-0.096 0.096-0.229 0.155-0.376 0.155-0.001 0-0.001 0-0.002 0h0c-0.295-0.002-0.532-0.242-0.531-0.536 0.002-0.292 0.238-0.529 0.53-0.531h0c0.295 0.002 0.532 0.241 0.53 0.536-0.001 0.147-0.061 0.279-0.157 0.375l-0 0h0.005z"></path>
</symbol>
<symbol id="icon-astronauta-1" viewBox="0 0 32 32">
<path fill="#2196f3" style="fill: var(--color2, #2196f3)" d="M31.974 4.524c-0.064-0.191-0.227-0.332-0.427-0.362l-0.003-0-1.91-0.278-0.855-1.731c-0.179-0.365-0.777-0.365-0.956 0l-0.855 1.731-1.91 0.278c-0.203 0.030-0.367 0.171-0.43 0.359l-0.001 0.004c-0.062 0.193-0.011 0.405 0.135 0.547l1.383 1.348-0.326 1.903c-0.034 0.2 0.048 0.402 0.212 0.522 0.087 0.064 0.196 0.102 0.313 0.102 0.091 0 0.177-0.023 0.252-0.063l-0.003 0.001 1.709-0.899 1.709 0.899c0.078 0.041 0.164 0.061 0.249 0.061 0.11 0 0.221-0.034 0.314-0.102 0.134-0.098 0.22-0.254 0.22-0.431 0-0.032-0.003-0.063-0.008-0.094l0 0.003-0.326-1.903 1.383-1.348c0.099-0.097 0.161-0.233 0.161-0.382 0-0.059-0.009-0.115-0.027-0.168l0.001 0.004zM29.511 5.851c-0.099 0.097-0.161 0.232-0.161 0.382 0 0.032 0.003 0.063 0.008 0.094l-0-0.003 0.191 1.114-1-0.526c-0.072-0.039-0.157-0.061-0.248-0.061-0 0-0 0-0.001 0h0c-0.085 0-0.17 0.020-0.249 0.061l-1.001 0.526 0.191-1.114c0.005-0.027 0.008-0.058 0.008-0.090 0-0.15-0.062-0.285-0.161-0.382l-0.81-0.789 1.119-0.163c0.177-0.026 0.324-0.137 0.4-0.289l0.001-0.003 0.5-1.013 0.5 1.013c0.078 0.157 0.228 0.267 0.402 0.292l1.119 0.163-0.809 0.789zM26.134 20.522h-1.067v1.067h1.067v-1.067zM26.134 22.656h-1.067v1.067h1.067v-1.067zM27.2 21.589h-1.067v1.067h1.067v-1.067zM25.067 21.589h-1.067v1.067h1.067v-1.067zM22.4 26.389h-1.067v1.067h1.067v-1.067zM22.4 28.522h-1.067v1.067h1.067v-1.067zM23.467 27.456h-1.067v1.067h1.067v-1.067zM21.333 27.456h-1.067v1.067h1.067v-1.067zM16 24.256h-1.067v1.067h1.067v-1.067zM16 26.389h-1.067v1.067h1.067v-1.067zM17.067 25.322h-1.067v1.067h1.067v-1.067zM14.933 25.322h-1.067v1.067h1.067v-1.067zM5.867 6.122h-1.067v1.067h1.067v-1.067zM5.867 8.255h-1.067v1.067h1.067v-1.067z"></path>
<path fill="#2196f3" style="fill: var(--color2, #2196f3)" d="M6.933 7.189h-1.067v1.067h1.067v-1.067zM4.8 7.189h-1.067v1.067h1.067v-1.067z"></path>
<path fill="#212121" style="fill: var(--color1, #212121)" d="M24.715 14.159c-0.287-0.388-0.709-0.637-1.188-0.705-0.481-0.068-0.956 0.058-1.34 0.352l-1.252 0.96-1.898 1.417-1.358-0.541c2.421-1.086 4.114-3.508 4.114-6.32 0-3.823-3.123-6.933-6.961-6.933s-6.961 3.11-6.961 6.933c0 1.386 0.414 2.674 1.12 3.758l-2.769-0.024c-0.009 0-0.015 0.004-0.023 0.005-0.056 0.003-0.109 0.014-0.159 0.032l0.004-0.001c-0.013 0.005-0.026 0.008-0.038 0.013-0.006 0.003-0.013 0.003-0.019 0.006l-3.233 1.596c-0.001 0-0.001 0-0.001 0.001l-1.893 0.911c-0.024 0.011-0.045 0.023-0.064 0.036l0.001-0.001c-0.755 0.502-1.012 1.489-0.598 2.295 0.22 0.429 0.595 0.745 1.056 0.889 0.161 0.052 0.347 0.083 0.539 0.083h0c0.29 0 0.577-0.071 0.839-0.211l1.388-0.738 2.264-1.169 1.357-0.008-5.442 5.416c-0 0.001-0.001 0.001-0.002 0.001l-1.339 1.333c-0.316 0.315-0.49 0.732-0.49 1.178s0.174 0.863 0.49 1.179c0.325 0.323 0.752 0.485 1.179 0.485s0.854-0.162 1.18-0.485l1.314-1.309 1.741-1.3 0.901 0.897-1.762 1.754c-0 0.001-0.001 0.001-0.002 0.001l-1.339 1.333c-0.316 0.315-0.49 0.732-0.49 1.178s0.174 0.863 0.49 1.179c0.325 0.323 0.753 0.485 1.18 0.485s0.855-0.162 1.18-0.485l3.482-3.467c0.001-0.001 0.001-0.001 0.001-0.002l1.010-1-0.004-0.004c0.006-0.006 0.015-0.009 0.022-0.015l5.166-5.658 3.471 0.494c0.025 0.004 0.050 0.005 0.075 0.005 0.065 0 0.127-0.015 0.187-0.038 0.018-0.006 0.033-0.015 0.050-0.023 0.019-0.010 0.039-0.015 0.058-0.027l3.213-2.133c0.012-0.008 0.018-0.021 0.029-0.029 0.013-0.010 0.029-0.014 0.041-0.026l1.271-1.191c0.662-0.62 0.753-1.635 0.212-2.362zM2.13 17.77c-0.173 0.093-0.37 0.111-0.558 0.052-0.187-0.058-0.338-0.186-0.427-0.358-0.161-0.314-0.068-0.695 0.214-0.902l1.314-0.632 0.449 1.312-0.992 0.528zM5.628 15.942l-1.548 0.8-0.439-1.283 2.027-1.001-0.040 1.484zM20.727 9.322c0 0.918-0.219 1.785-0.599 2.559l-4.181-1.899c-0.044-0.573-0.341-1.075-0.788-1.388l1.464-4.86c2.378 0.756 4.105 2.974 4.105 5.588zM8.938 9.322c0-3.235 2.644-5.867 5.894-5.867 0.253 0 0.5 0.021 0.745 0.052l-1.432 4.754c-0.019-0.001-0.037-0.006-0.057-0.006-1.033 0-1.873 0.837-1.873 1.867s0.84 1.867 1.873 1.867c0.694 0 1.294-0.383 1.618-0.945l3.862 1.755c-1.075 1.446-2.795 2.39-4.737 2.39-3.25 0-5.894-2.632-5.894-5.867zM14.894 10.122c0 0.441-0.362 0.8-0.806 0.8s-0.806-0.359-0.806-0.8c0-0.441 0.362-0.8 0.806-0.8s0.806 0.359 0.806 0.8zM2.465 25.146c-0.236 0.234-0.619 0.234-0.854 0.001-0.114-0.114-0.176-0.263-0.176-0.423s0.062-0.309 0.176-0.421l0.962-0.958 0.851 0.848-0.959 0.955zM5.679 28.88c-0.236 0.234-0.619 0.235-0.855 0.001-0.114-0.114-0.176-0.263-0.176-0.423s0.062-0.309 0.176-0.421l0.963-0.959 0.852 0.848-0.96 0.955zM9.16 25.411c-0.001 0-0.001 0-0.002 0.001l-1.765 1.76-0.852-0.848 1.763-1.756c0.001-0.001 0.001-0.001 0.002-0.001 0.040-0.040 0.065-0.088 0.090-0.135 0.007-0.014 0.020-0.026 0.026-0.040 0.017-0.041 0.019-0.085 0.026-0.129 0.003-0.025 0.014-0.047 0.014-0.073 0-0.036-0.013-0.070-0.020-0.106-0.006-0.032-0.006-0.065-0.019-0.095-0.020-0.050-0.055-0.094-0.091-0.138-0.010-0.012-0.014-0.027-0.025-0.038h-0.001c-0.001-0-0.001-0.002-0.001-0.002l-1.607-1.6c-0.017-0.017-0.039-0.024-0.058-0.038-0.028-0.022-0.055-0.042-0.087-0.058-0.030-0.015-0.061-0.024-0.093-0.033-0.034-0.010-0.067-0.017-0.103-0.020-0.033-0.002-0.063 0.001-0.095 0.005-0.036 0.004-0.069 0.009-0.104 0.020-0.034 0.011-0.063 0.027-0.094 0.045-0.020 0.011-0.042 0.015-0.061 0.029l-1.773 1.324-0.901-0.897 2.399-2.386 4.361 4.289-0.928 0.919zM15.979 18.394c-0.015-0.002-0.030 0.004-0.045 0.003-0.008-0-0.017-0.001-0.026-0.001-0.031 0-0.062 0.003-0.092 0.008l0.003-0c-0.030 0.005-0.059 0.011-0.088 0.021-0.034 0.012-0.065 0.028-0.097 0.047s-0.059 0.039-0.084 0.062l0-0c-0.013 0.011-0.028 0.017-0.040 0.029l-4.698 5.146-4.328-4.257 2.833-2.818c0.209-0.208 0.21-0.546 0.002-0.755-0.105-0.105-0.243-0.157-0.381-0.156v-0.001l-2.219 0.013 0.028-1.607 3.104 0.027c1.265 1.294 3.029 2.101 4.981 2.101 0.437 0 0.864-0.045 1.279-0.123 0.040 0.032 0.079 0.065 0.13 0.085l2.41 0.96 0.152 0.758 0.178 0.885-3.003-0.427zM20.020 18.572l-0.313-1.558 1.446-1.080 0.947 1.257-2.080 1.381zM23.774 15.741l-0.838 0.785-0.931-1.236 0.831-0.637c0.155-0.119 0.351-0.168 0.543-0.143 0.193 0.027 0.364 0.128 0.48 0.284 0.217 0.292 0.18 0.699-0.085 0.947z"></path>
<path fill="#212121" style="fill: var(--color1, #212121)" d="M13.602 18.544l-2.143-2.133c-0.207-0.207-0.545-0.207-0.753 0l-2.142 2.133c-0.097 0.097-0.157 0.23-0.157 0.378v0c0 0.142 0.056 0.278 0.157 0.378l2.142 2.133c0.104 0.103 0.241 0.155 0.377 0.155s0.273-0.052 0.376-0.155l2.143-2.133c0.097-0.097 0.157-0.23 0.157-0.378v-0c0-0.142-0.057-0.278-0.157-0.378zM11.083 20.303l-1.387-1.381 1.387-1.381 1.387 1.381-1.387 1.381zM17.164 5.071l-0.258 1.036c0.071 0.018 1.738 0.452 1.738 2.149h1.067c-0-2.017-1.666-2.965-2.547-3.185zM19.711 9.322h-1.067v1.067h1.067v-1.067z"></path>
</symbol>
<symbol id="icon-diagrama-1" viewBox="0 0 32 32">
<path fill="#2196f3" style="fill: var(--color2, #2196f3)" d="M14.926 14.965h1.066v4.798h-1.066v-4.797zM19.19 17.097h1.066v2.665h-1.066v-2.665zM10.661 18.696h1.066v1.066h-1.066v-1.066zM7.463 18.163h1.066v1.599h-1.066v-1.599z"></path>
<path fill="#212121" style="fill: var(--color1, #212121)" d="M1.599 28.291h25.587c0.883 0 1.599-0.716 1.599-1.599v-2.132c0-0.883-0.716-1.599-1.599-1.599h-0.533v-13.293l3.028-2.868c0.703 0.346 1.553 0.136 2.013-0.499s0.396-1.508-0.152-2.068c-0.548-0.56-1.42-0.644-2.065-0.198s-0.873 1.292-0.542 2.002l-2.281 2.163v-1.23c0-0.883-0.716-1.599-1.599-1.599h-21.322c-0.883 0-1.599 0.716-1.599 1.599v15.992h-0.533c-0.883 0-1.599 0.716-1.599 1.599v2.132c0 0.883 0.716 1.599 1.599 1.599zM30.384 4.837c0.294 0 0.533 0.239 0.533 0.533s-0.239 0.533-0.533 0.533c-0.294 0-0.533-0.239-0.533-0.533s0.239-0.533 0.533-0.533zM3.198 6.969c0-0.294 0.239-0.533 0.533-0.533h21.322c0.294 0 0.533 0.239 0.533 0.533v2.239l-1.066 1.013v-2.186c0-0.294-0.239-0.533-0.533-0.533h-19.19c-0.294 0-0.533 0.239-0.533 0.533v13.326c0 0.294 0.239 0.533 0.533 0.533h19.19c0.294 0 0.533-0.239 0.533-0.533v-9.674l1.066-1.010v12.284h-22.388v-15.992zM7.996 13.899c-0.721-0.002-1.354 0.478-1.546 1.174s0.105 1.433 0.725 1.801c0.62 0.368 1.41 0.276 1.928-0.226l1.853 0.93c0.069 0.035 0.151 0.056 0.238 0.056 0.158 0 0.3-0.069 0.398-0.178l0-0.001 3.939-4.431 3.872 2.901c0.088 0.066 0.199 0.106 0.32 0.106 0.142 0 0.271-0.056 0.367-0.146l-0 0 3.365-3.188v8.131h-18.124v-12.26h18.124v2.66l-3.771 3.572-3.904-2.927c-0.222-0.166-0.534-0.135-0.718 0.072l-3.993 4.493-1.493-0.746c0.010-0.056 0.017-0.123 0.020-0.19l0-0.003c0-0.883-0.716-1.599-1.599-1.599zM8.529 15.498c0 0.294-0.239 0.533-0.533 0.533s-0.533-0.239-0.533-0.533c0-0.294 0.239-0.533 0.533-0.533s0.533 0.239 0.533 0.533zM11.727 24.027h5.331v0.533c0 0.294-0.239 0.533-0.533 0.533h-4.264c-0.294 0-0.533-0.239-0.533-0.533v-0.533zM1.066 24.56c0-0.294 0.239-0.533 0.533-0.533h9.062v0.533c0 0.883 0.716 1.599 1.599 1.599h4.264c0.883 0 1.599-0.716 1.599-1.599v-0.533h9.062c0.294 0 0.533 0.239 0.533 0.533v2.132c0 0.294-0.239 0.533-0.533 0.533h-25.587c-0.294 0-0.533-0.239-0.533-0.533v-2.132z"></path>
</symbol>
<symbol id="icon-twitter" viewBox="0 0 32 32">
<path d="M23.273 11.49c-0.541 0.237-1.117 0.394-1.718 0.471 0.618-0.369 1.090-0.949 1.312-1.648-0.576 0.344-1.213 0.586-1.891 0.722-0.547-0.583-1.327-0.944-2.178-0.944-1.651 0-2.98 1.34-2.98 2.983 0 0.236 0.020 0.464 0.069 0.68-2.479-0.121-4.673-1.309-6.146-3.119-0.257 0.446-0.408 0.957-0.408 1.507 0 1.033 0.532 1.948 1.325 2.478-0.479-0.009-0.949-0.148-1.347-0.367v0.033c0 1.449 1.034 2.653 2.389 2.93-0.243 0.066-0.507 0.098-0.782 0.098-0.191 0-0.384-0.011-0.565-0.051 0.386 1.181 1.483 2.049 2.786 2.077-1.007 0.793-2.293 1.272-3.691 1.272-0.002 0-0.005 0-0.007 0h0c-0.245 0-0.479-0.011-0.714-0.041 1.321 0.852 2.886 1.338 4.575 1.338 5.487 0 8.487-4.545 8.487-8.485 0-0.132-0.005-0.259-0.011-0.385 0.592-0.42 1.089-0.944 1.495-1.548z"></path>
</symbol>
<symbol id="icon-facebook" viewBox="0 0 32 32">
<path d="M18.422 11.142h1.328v-2.313c-0.229-0.031-1.017-0.102-1.935-0.102-1.915 0-3.226 1.204-3.226 3.418v2.037h-2.113v2.585h2.113v6.505h2.59v-6.505h2.027l0.322-2.585h-2.35v-1.781c0.001-0.747 0.202-1.259 1.243-1.259z"></path>
</symbol>
<symbol id="icon-linkedin" viewBox="0 0 32 32">
<path d="M23.269 23.273v-0.001h0.004v-5.335c0-2.61-0.562-4.62-3.613-4.62-1.467 0-2.451 0.805-2.853 1.568h-0.042v-1.324h-2.893v9.711h3.012v-4.809c0-1.266 0.24-2.49 1.808-2.49 1.545 0 1.568 1.445 1.568 2.572v4.728h3.009zM8.967 13.562h3.016v9.711h-3.016v-9.711zM10.474 8.727c-0.964 0-1.747 0.782-1.747 1.747s0.782 1.763 1.747 1.763c0.964 0 1.747-0.799 1.747-1.763s-0.783-1.747-1.747-1.747z"></path>
</symbol>
<symbol id="icon-instagram" viewBox="0 0 32 32">
<path d="M23.258 13.004c-0.034-0.773-0.159-1.304-0.338-1.765-0.185-0.489-0.469-0.926-0.841-1.29-0.354-0.36-0.784-0.645-1.263-0.83l-0.024-0.008c-0.463-0.179-0.992-0.304-1.764-0.338-0.779-0.037-1.026-0.046-3.001-0.046s-2.222 0.009-2.998 0.043c-0.773 0.034-1.304 0.159-1.764 0.338-0.489 0.185-0.926 0.469-1.29 0.841-0.36 0.354-0.645 0.784-0.83 1.263l-0.008 0.024c-0.179 0.463-0.304 0.992-0.338 1.764-0.037 0.779-0.045 1.026-0.045 3.001s0.008 2.222 0.043 2.998c0.034 0.773 0.159 1.304 0.338 1.765 0.194 0.505 0.48 0.935 0.841 1.289l0.001 0c0.354 0.36 0.784 0.645 1.263 0.83l0.024 0.008c0.463 0.179 0.992 0.304 1.765 0.338 0.776 0.034 1.023 0.043 2.998 0.043s2.222-0.008 2.998-0.043c0.773-0.034 1.304-0.159 1.764-0.338 0.98-0.386 1.742-1.148 2.12-2.103l0.009-0.025c0.179-0.463 0.304-0.992 0.338-1.765 0.034-0.776 0.043-1.023 0.043-2.998s-0.003-2.222-0.037-2.998zM21.949 18.942c-0.031 0.71-0.151 1.094-0.25 1.35-0.251 0.636-0.745 1.13-1.365 1.375l-0.016 0.006c-0.256 0.099-0.642 0.219-1.35 0.25-0.767 0.034-0.997 0.043-2.938 0.043s-2.174-0.008-2.938-0.043c-0.71-0.031-1.094-0.15-1.35-0.25-0.315-0.116-0.602-0.301-0.835-0.543-0.235-0.229-0.42-0.508-0.538-0.82l-0.005-0.016c-0.099-0.256-0.219-0.642-0.25-1.35-0.034-0.767-0.043-0.997-0.043-2.938s0.008-2.174 0.043-2.938c0.031-0.71 0.151-1.094 0.25-1.35 0.117-0.315 0.301-0.602 0.546-0.835 0.229-0.235 0.508-0.42 0.82-0.538l0.016-0.005c0.256-0.099 0.642-0.219 1.35-0.25 0.767-0.034 0.997-0.043 2.938-0.043 1.944 0 2.174 0.008 2.938 0.043 0.71 0.031 1.094 0.151 1.35 0.25 0.315 0.116 0.602 0.301 0.835 0.543 0.241 0.236 0.426 0.52 0.543 0.835 0.099 0.256 0.219 0.642 0.25 1.35 0.034 0.767 0.043 0.997 0.043 2.938s-0.009 2.168-0.043 2.935z"></path>
<path d="M16.027 12.265c-2.063 0-3.736 1.674-3.736 3.736s1.674 3.736 3.736 3.736c2.063 0 3.737-1.674 3.737-3.736s-1.674-3.736-3.737-3.736zM16.027 18.425c-1.338 0-2.424-1.085-2.424-2.424s1.086-2.424 2.424-2.424c1.338 0 2.424 1.085 2.424 2.424s-1.085 2.424-2.424 2.424zM20.784 12.117c0 0.482-0.391 0.872-0.872 0.872s-0.872-0.391-0.872-0.872c0-0.482 0.391-0.872 0.872-0.872s0.872 0.39 0.872 0.872z"></path>
</symbol>
<symbol id="icon-Logo1" viewBox="0 0 64 32">
<path d="M30.257 3.636h-0.082c-0.127-0.008-0.254-0.011-0.38-0.014h-0.275c-0.24 0-0.484 0.006-0.727 0.018-0.008-0.001-0.018-0.001-0.027-0.001s-0.019 0-0.029 0.001l0.001-0c-2.331 0.136-4.495 0.719-6.451 1.664l0.102-0.044-0.261 0.126v13.368l0.611-0.207c0.536-0.184 1.107-0.35 1.698-0.504 1.46-0.391 3.141-0.626 4.873-0.649l0.014-0v1.756c-0.231 0.002-0.456 0.008-0.679 0.020l0.036-0.002h-0.050c-1.373 0.077-2.658 0.283-3.896 0.608l0.136-0.030c-1.701 0.432-3.192 1.030-4.578 1.795l0.098-0.050v-17.145c1.353-0.804 2.918-1.46 4.575-1.885l0.124-0.027c1.328-0.357 2.853-0.565 4.426-0.571h0.262c0.309 0.008 0.609 0.022 0.892 0.043 0.814 0.058 1.567 0.183 2.295 0.371l-0.088-0.019v1.729c-0.616-0.151-1.347-0.265-2.094-0.32l-0.044-0.003-0.044-0.004c-0.149-0.013-0.298-0.025-0.437-0.025zM33.3 5.403c0.383 0.029 0.781 0.043 1.182 0.043 1.657-0.006 3.261-0.224 4.789-0.627l-0.132 0.030c1.701-0.434 3.192-1.033 4.577-1.797l-0.099 0.050v16.84c-1.353 0.804-2.919 1.459-4.577 1.884l-0.125 0.027c-1.328 0.356-2.853 0.563-4.425 0.57h-0.004c-0.032 0-0.071 0-0.109 0-1.154 0-2.275-0.145-3.344-0.417l0.094 0.020v-16.949c0.26 0.060 0.527 0.115 0.799 0.161 0.446 0.075 0.916 0.13 1.375 0.164zM41.87 5.533l-0.611 0.206c-0.369 0.135-0.936 0.309-1.51 0.465l-0.188 0.043c-1.521 0.407-3.269 0.644-5.071 0.651h-0.004c-0.399 0-0.765-0.011-1.12-0.034l-0.487-0.032v13.752l0.418 0.037c0.354 0.032 0.765 0.051 1.181 0.051 0.004 0 0.007 0 0.011 0h-0.001c1.423-0.006 2.799-0.195 4.11-0.543l-0.113 0.026c1.198-0.304 2.238-0.688 3.223-1.166l-0.1 0.044 0.261-0.126v-13.373z"></path>
<path d="M21.577 27.351c-0.086-0.089-0.189-0.16-0.305-0.208l-0.006-0.002c-0.1-0.041-0.215-0.065-0.336-0.065-0.011 0-0.023 0-0.034 0.001l0.002-0c-0.004-0-0.009-0-0.013-0-0.137 0-0.267 0.027-0.386 0.076l0.007-0.002c-0.119 0.048-0.221 0.116-0.305 0.201v0c-0.084 0.085-0.151 0.187-0.195 0.301l-0.002 0.006c-0.044 0.109-0.070 0.235-0.070 0.368 0 0.004 0 0.008 0 0.012v-0.001 2.291c-0 0.011-0.001 0.024-0.001 0.036 0 0.157 0.033 0.306 0.093 0.44l-0.003-0.007c0.054 0.117 0.132 0.222 0.229 0.307 0.092 0.077 0.199 0.133 0.315 0.163 0.102 0.030 0.22 0.047 0.342 0.048h0c0.003 0 0.006 0 0.009 0 0.131 0 0.255-0.029 0.366-0.082l-0.005 0.002c0.119-0.053 0.22-0.124 0.305-0.212l0-0c0.083-0.086 0.15-0.188 0.198-0.301l0.002-0.007c0.046-0.107 0.073-0.231 0.073-0.361 0-0.001 0-0.003 0-0.004v0-0.256h-0.599v0.204c0 0.004 0 0.009 0 0.014 0 0.068-0.013 0.134-0.037 0.194l0.001-0.004c-0.020 0.051-0.050 0.093-0.087 0.129l-0 0c-0.035 0.029-0.077 0.051-0.123 0.065l-0.003 0.001c-0.037 0.013-0.080 0.021-0.125 0.021h-0c-0.011 0.001-0.023 0.002-0.035 0.002-0.101 0-0.19-0.049-0.245-0.124l-0.001-0.001c-0.050-0.081-0.080-0.178-0.080-0.283 0-0.008 0-0.017 0.001-0.025l-0 0.001v-2.136c-0-0.007-0-0.015-0-0.023 0-0.116 0.027-0.226 0.076-0.324l-0.002 0.004c0.055-0.085 0.149-0.14 0.257-0.14 0.013 0 0.026 0.001 0.038 0.002l-0.002-0c0.003-0 0.007-0 0.011-0 0.105 0 0.197 0.050 0.255 0.128l0.001 0.001c0.062 0.081 0.099 0.183 0.099 0.295 0 0.004-0 0.009-0 0.013v-0.001 0.198h0.593v-0.233c0-0.003 0-0.006 0-0.009 0-0.141-0.027-0.275-0.076-0.399l0.003 0.007c-0.047-0.125-0.115-0.232-0.201-0.323l0 0zM25.134 27.324c-0.183-0.155-0.421-0.25-0.681-0.252h-0c-0.128 0.001-0.251 0.024-0.365 0.067l0.007-0.002c-0.122 0.044-0.227 0.108-0.317 0.188l0.001-0.001c-0.097 0.088-0.176 0.195-0.23 0.315l-0.002 0.006c-0.055 0.125-0.087 0.27-0.087 0.423 0 0.007 0 0.014 0 0.022l-0-0.001v2.197c-0.004 0.155 0.026 0.308 0.087 0.45 0.054 0.118 0.133 0.223 0.232 0.307 0.092 0.085 0.199 0.151 0.316 0.193 0.115 0.042 0.235 0.064 0.357 0.064 0.128-0 0.251-0.024 0.364-0.067l-0.007 0.002c0.125-0.046 0.233-0.112 0.325-0.194l-0.001 0.001c0.094-0.084 0.17-0.187 0.224-0.301l0.002-0.006c0.055-0.124 0.087-0.269 0.087-0.421 0-0.010-0-0.020-0-0.030l0 0.001v-2.197c0-0.006 0-0.013 0-0.021 0-0.153-0.032-0.298-0.090-0.43l0.003 0.007c-0.056-0.125-0.132-0.232-0.226-0.32l-0-0zM24.855 30.286c0.001 0.010 0.001 0.022 0.001 0.034 0 0.111-0.046 0.212-0.12 0.284l-0 0c-0.076 0.064-0.174 0.103-0.282 0.103s-0.206-0.039-0.282-0.103l0.001 0.001c-0.074-0.072-0.121-0.172-0.121-0.284 0-0.012 0.001-0.024 0.002-0.036l-0 0.002v-2.197c-0.001-0.010-0.001-0.022-0.001-0.034 0-0.111 0.046-0.212 0.12-0.284l0-0c0.076-0.064 0.174-0.103 0.282-0.103v0c0.108 0 0.206 0.039 0.282 0.103l-0.001-0.001c0.074 0.072 0.121 0.172 0.121 0.284 0 0.012-0.001 0.024-0.002 0.035l0-0.002v2.197zM29.807 31.267v-4.159h-0.576l-0.756 2.202h-0.011l-0.762-2.202h-0.57v4.159h0.594v-2.53h0.011l0.582 1.789h0.296l0.587-1.789h0.011v2.53h0.594zM33.182 27.4c-0.090-0.1-0.203-0.178-0.33-0.225l-0.006-0.002c-0.122-0.041-0.262-0.065-0.408-0.065-0.008 0-0.016 0-0.024 0l0.001-0h-0.883v4.159h0.593v-1.624h0.305c0.185 0.008 0.369-0.031 0.535-0.114 0.136-0.076 0.246-0.184 0.323-0.314l0.002-0.004c0.069-0.111 0.115-0.234 0.136-0.362 0.021-0.131 0.032-0.282 0.032-0.436 0-0.013-0-0.026-0-0.039l0 0.002c0.001-0.020 0.001-0.045 0.001-0.069 0-0.186-0.022-0.368-0.062-0.541l0.003 0.016c-0.042-0.15-0.118-0.279-0.219-0.383l0 0zM32.877 28.668c-0.003 0.079-0.023 0.153-0.056 0.219l0.001-0.003c-0.034 0.064-0.087 0.114-0.151 0.145l-0.002 0.001c-0.073 0.033-0.158 0.053-0.248 0.053-0.011 0-0.022-0-0.033-0.001l0.002 0h-0.27v-1.414h0.305c0.008-0 0.018-0.001 0.028-0.001 0.087 0 0.169 0.020 0.243 0.054l-0.003-0.001c0.061 0.036 0.109 0.088 0.138 0.151l0.001 0.002c0.032 0.073 0.050 0.152 0.052 0.232v0.276c0 0.097 0.006 0.197 0 0.286h-0.006zM35.99 27.108h-0.486l-0.916 4.159h0.593l0.174-0.894h0.808l0.174 0.894h0.593l-0.939-4.159zM35.443 29.807l0.292-1.508h0.011l0.29 1.508h-0.593zM39.819 29.614h-0.011l-0.895-2.506h-0.57v4.159h0.593v-2.501h0.012l0.906 2.501h0.557v-4.159h-0.593v2.506zM43.44 27.108l-0.477 1.654h-0.012l-0.477-1.654h-0.628l0.814 2.401v1.758h0.593v-1.758l0.814-2.401h-0.628z"></path>
</symbol>
<symbol id="icon-Logo2" viewBox="0 0 64 32">
<path d="M21.981 29.699c0.010 0 0.020 0.002 0.028 0.006l-0.001-0c0.009 0.004 0.017 0.008 0.023 0.014l-0-0 0.132 0.126c-0.102 0.102-0.229 0.183-0.37 0.239-0.146 0.055-0.315 0.086-0.491 0.086-0.012 0-0.024-0-0.036-0l0.002 0c-0.008 0-0.017 0-0.027 0-0.167 0-0.328-0.029-0.477-0.083l0.010 0.003c-0.141-0.051-0.268-0.128-0.372-0.226-0.106-0.101-0.188-0.22-0.24-0.349s-0.084-0.278-0.084-0.434c0-0.005 0-0.010 0-0.015v0.001c-0-0.004-0-0.010-0-0.015 0-0.157 0.033-0.306 0.093-0.441l-0.003 0.007c0.058-0.13 0.144-0.249 0.255-0.349 0.112-0.098 0.247-0.176 0.395-0.227 0.147-0.051 0.316-0.080 0.492-0.080 0.006 0 0.012 0 0.017 0h-0.001c0.009-0 0.020-0 0.030-0 0.158 0 0.31 0.027 0.452 0.076l-0.010-0.003c0.136 0.051 0.253 0.119 0.356 0.204l-0.002-0.002-0.11 0.134c-0.008 0.010-0.017 0.018-0.028 0.024l-0 0c-0.011 0.006-0.024 0.010-0.038 0.010-0.002 0-0.005-0-0.007-0l0 0c-0.018-0.001-0.034-0.006-0.048-0.015l0 0-0.059-0.036-0.082-0.046c-0.030-0.015-0.066-0.030-0.104-0.042l-0.007-0.002c-0.041-0.013-0.091-0.026-0.143-0.035l-0.007-0.001c-0.055-0.009-0.117-0.014-0.181-0.014-0.005 0-0.010 0-0.015 0h0.001c-0.004-0-0.008-0-0.013-0-0.126 0-0.248 0.022-0.36 0.062l0.007-0.002c-0.108 0.038-0.206 0.096-0.286 0.169-0.082 0.078-0.145 0.169-0.186 0.269-0.043 0.101-0.068 0.219-0.068 0.343 0 0.004 0 0.008 0 0.012v-0.001c-0 0.004-0 0.009-0 0.014 0 0.125 0.025 0.244 0.070 0.353l-0.002-0.006c0.040 0.099 0.102 0.19 0.183 0.268 0.075 0.073 0.169 0.129 0.273 0.166 0.107 0.039 0.223 0.058 0.339 0.057 0.006 0 0.012 0 0.019 0 0.064 0 0.128-0.004 0.19-0.012l-0.007 0.001c0.113-0.012 0.217-0.046 0.309-0.098l-0.004 0.002c0.049-0.029 0.092-0.058 0.132-0.090l-0.002 0.002c0.017-0.014 0.039-0.022 0.062-0.023h0zM25.784 29.066c0 0.004 0 0.009 0 0.013 0 0.156-0.033 0.304-0.092 0.439l0.003-0.007c-0.054 0.129-0.138 0.247-0.248 0.345s-0.242 0.176-0.389 0.227c-0.149 0.051-0.322 0.080-0.5 0.080s-0.351-0.029-0.512-0.083l0.011 0.003c-0.146-0.052-0.277-0.129-0.387-0.227-0.11-0.1-0.195-0.219-0.25-0.349-0.119-0.288-0.119-0.603 0-0.891 0.056-0.13 0.141-0.249 0.25-0.35 0.11-0.095 0.242-0.17 0.387-0.219 0.149-0.052 0.321-0.082 0.5-0.082s0.351 0.030 0.512 0.085l-0.011-0.003c0.146 0.052 0.279 0.129 0.388 0.227 0.108 0.099 0.193 0.217 0.249 0.345 0.061 0.143 0.091 0.295 0.089 0.448zM25.438 29.066c0-0.006 0-0.012 0-0.019 0-0.122-0.023-0.238-0.065-0.345l0.002 0.006c-0.037-0.099-0.097-0.19-0.176-0.267-0.077-0.073-0.172-0.131-0.278-0.169-0.109-0.037-0.234-0.059-0.364-0.059s-0.255 0.021-0.372 0.061l0.008-0.002c-0.106 0.038-0.201 0.095-0.278 0.169-0.080 0.077-0.141 0.168-0.178 0.267-0.040 0.106-0.063 0.229-0.063 0.358s0.023 0.251 0.065 0.365l-0.002-0.007c0.037 0.099 0.098 0.19 0.178 0.267 0.077 0.073 0.172 0.13 0.278 0.167 0.109 0.036 0.234 0.057 0.364 0.057s0.255-0.021 0.372-0.060l-0.008 0.002c0.106-0.037 0.201-0.094 0.278-0.167 0.079-0.078 0.139-0.169 0.176-0.267 0.040-0.1 0.063-0.216 0.063-0.337 0-0.007-0-0.014-0-0.022l0 0.001zM28.378 29.441l0.035 0.080c0.013-0.029 0.025-0.054 0.038-0.080 0.015-0.031 0.029-0.057 0.045-0.082l-0.002 0.003 0.841-1.329c0.016-0.023 0.031-0.037 0.048-0.041s0.037-0.007 0.058-0.007c0.004 0 0.008 0 0.012 0l-0.001-0h0.249v2.161h-0.295v-1.656c-0.001-0.011-0.001-0.024-0.001-0.037s0-0.026 0.001-0.039l-0 0.002-0.846 1.347c-0.012 0.021-0.028 0.038-0.049 0.049l-0.001 0c-0.020 0.011-0.045 0.018-0.071 0.018-0.001 0-0.001 0-0.002 0h-0.048c-0.001 0-0.002 0-0.003 0-0.026 0-0.050-0.007-0.071-0.018l0.001 0c-0.021-0.011-0.038-0.028-0.049-0.049l-0-0.001-0.871-1.356v1.735h-0.285v-2.157h0.249c0.003-0 0.007-0 0.011-0 0.021 0 0.040 0.003 0.059 0.008l-0.002-0c0.020 0.008 0.036 0.023 0.046 0.041l0 0 0.859 1.33c0.016 0.022 0.030 0.048 0.042 0.074l0.001 0.003zM31.544 29.334v0.809h-0.329v-2.158h0.734c0.008-0 0.017-0 0.027-0 0.136 0 0.268 0.017 0.394 0.050l-0.011-0.002c0.107 0.026 0.205 0.072 0.29 0.134 0.073 0.058 0.13 0.131 0.165 0.212 0.039 0.088 0.058 0.182 0.056 0.276 0 0.002 0 0.005 0 0.008 0 0.097-0.022 0.189-0.063 0.271l0.002-0.004c-0.040 0.083-0.1 0.157-0.178 0.216-0.083 0.063-0.18 0.113-0.285 0.142l-0.006 0.001c-0.111 0.032-0.239 0.050-0.371 0.050-0.009 0-0.018-0-0.027-0l-0.397-0.006zM31.544 29.102h0.398c0.087 0.001 0.173-0.010 0.255-0.033 0.071-0.021 0.132-0.053 0.186-0.094l-0.001 0.001c0.048-0.038 0.086-0.086 0.111-0.141l0.001-0.002c0.025-0.052 0.040-0.112 0.040-0.177 0-0.002 0-0.004-0-0.005v0c0-0.007 0.001-0.015 0.001-0.023 0-0.056-0.012-0.108-0.035-0.155l0.001 0.002c-0.028-0.059-0.067-0.108-0.114-0.147l-0.001-0.001c-0.126-0.085-0.284-0.127-0.443-0.116h-0.398v0.89zM35.969 30.146h-0.26c-0.001 0-0.003 0-0.005 0-0.025 0-0.049-0.008-0.068-0.020l0 0c-0.018-0.013-0.033-0.030-0.042-0.049l-0-0.001-0.224-0.522h-1.124l-0.232 0.522c-0.009 0.020-0.023 0.036-0.041 0.048l-0 0c-0.019 0.013-0.044 0.022-0.070 0.022-0.002 0-0.003-0-0.005-0h-0.26l0.988-2.161h0.342l1.001 2.161zM34.339 29.344h0.928l-0.392-0.88c-0.026-0.056-0.051-0.123-0.072-0.193l-0.002-0.010-0.038 0.113c-0.013 0.038-0.025 0.068-0.039 0.098l0.003-0.006-0.388 0.878zM37.391 27.995c0.020 0.009 0.036 0.022 0.049 0.038l0 0 1.44 1.629v-1.678h0.295v2.161h-0.165c-0.001 0-0.003 0-0.005 0-0.023 0-0.044-0.005-0.064-0.013l0.001 0c-0.020-0.010-0.038-0.024-0.053-0.040l-0-0-1.439-1.628c0.001 0.011 0.001 0.024 0.001 0.037s-0 0.026-0.001 0.039l0-0.002v1.606h-0.295v-2.161h0.175c0.001-0 0.003-0 0.004-0 0.020 0 0.039 0.004 0.056 0.010l-0.001-0zM41.602 29.287v0.858h-0.329v-0.858l-0.91-1.302h0.295c0.002-0 0.004-0 0.007-0 0.024 0 0.046 0.007 0.064 0.019l-0-0c0.018 0.014 0.032 0.030 0.044 0.048l0 0.001 0.57 0.84c0.023 0.036 0.043 0.069 0.059 0.1 0.013 0.024 0.027 0.055 0.039 0.086l0.002 0.006 0.043-0.093c0.018-0.038 0.037-0.071 0.058-0.101l-0.002 0.003 0.561-0.845c0.012-0.017 0.026-0.033 0.042-0.046l0-0c0.018-0.013 0.041-0.022 0.066-0.022 0.002 0 0.004 0 0.005 0h0.298l-0.912 1.307zM28.215 24.358c0.143 0.016 0.288 0.029 0.435 0.040 2.221-0.863 4.1-2.276 5.402-4.062s1.969-3.866 1.918-5.98l-2.448-2.127c0.498 2.25 0.265 4.577-0.672 6.719s-2.542 4.015-4.635 5.41z"></path>
<path d="M27.341 24.259l0.066 0.011c2.236-1.39 3.941-3.331 4.895-5.571s1.111-4.678 0.452-6.998l-3.487-3.029c1.41 2.49 1.978 5.277 1.637 8.036s-1.576 5.378-3.563 7.551zM39.166 16.854c-0.592 2.322-2.031 4.417-4.102 5.973-0.605 0.457-1.257 0.864-1.949 1.216 1.687-0.431 3.237-1.192 4.531-2.226s2.298-2.312 2.934-3.735l-1.414-1.227z"></path>
<path d="M38.611 16.512l-2.013-1.749c-0.038 1.994-0.691 3.943-1.89 5.644s-2.9 3.092-4.927 4.029h0.010c0.476-0 0.946-0.026 1.409-0.075l-0.058 0.005c1.894-0.672 3.568-1.741 4.871-3.111s2.196-3 2.598-4.743zM27.632 7.395l-2.402-2.090c-2.147 0.721-3.994 1.988-5.298 3.636s-2.006 3.599-2.013 5.599c0.008 2.21 0.864 4.354 2.433 6.094s3.76 2.975 6.228 3.511c2.203-2.332 3.493-5.213 3.682-8.225s-0.732-5.998-2.63-8.525zM44.16 16.19c-0.009-2.622-1.211-5.134-3.345-6.988s-5.025-2.899-8.043-2.906c-1.394-0.001-2.777 0.222-4.078 0.659l14.705 12.777c0.504-1.129 0.761-2.33 0.761-3.541z"></path>
</symbol>
<symbol id="icon-Logo3" viewBox="0 0 64 32">
<path d="M14.579 12.794h-0.002c-1.448 0-2.622 1.043-2.622 2.33v0.002c0 1.287 1.174 2.33 2.622 2.33h0.002c1.448 0 2.622-1.043 2.622-2.33v-0.002c0-1.287-1.174-2.33-2.622-2.33zM33.929 12.049c-0.004-1.787-0.805-3.5-2.226-4.764s-3.349-1.976-5.36-1.98c-2.012 0.003-3.94 0.715-5.362 1.979s-2.224 2.977-2.228 4.765v9.855s15.175-1.502 15.177-9.854v-0.002zM6.641 25.139c0.004 1.244 0.561 2.435 1.55 3.315s2.33 1.375 3.729 1.379c1.399-0.004 2.739-0.499 3.729-1.378s1.547-2.070 1.551-3.314v-6.857s-10.559 1.046-10.559 6.856zM11.921 26.368c-0.273 0-0.541-0.072-0.768-0.207s-0.405-0.327-0.509-0.551c-0.105-0.225-0.132-0.472-0.079-0.71s0.185-0.457 0.378-0.629c0.193-0.172 0.44-0.289 0.708-0.336s0.546-0.023 0.799 0.070c0.253 0.093 0.469 0.25 0.62 0.453s0.233 0.44 0.233 0.683c0 0.001 0 0.002 0 0.003 0 0.17-0.038 0.331-0.107 0.476l0.003-0.007c-0.069 0.15-0.171 0.286-0.299 0.4s-0.281 0.205-0.449 0.268c-0.157 0.059-0.339 0.094-0.529 0.094-0.001 0-0.001 0-0.002 0h0v-0.005zM21.573 24.168v2.575h-0.531v-2.575h0.531zM22.599 25.268v0.414h-1.171v-0.414h1.171zM22.723 24.168v0.416h-1.295v-0.416h1.295zM25.146 25.396v0.122c0 0.196-0.026 0.371-0.080 0.527s-0.128 0.288-0.225 0.398c-0.094 0.106-0.21 0.19-0.34 0.247l-0.006 0.002c-0.133 0.058-0.281 0.087-0.444 0.087-0.162 0-0.31-0.029-0.444-0.087-0.137-0.060-0.252-0.144-0.346-0.248l-0.001-0.001c-0.098-0.11-0.174-0.242-0.228-0.398-0.053-0.156-0.080-0.331-0.080-0.527v-0.122c0-0.197 0.027-0.373 0.080-0.527 0.053-0.156 0.128-0.288 0.225-0.398 0.094-0.106 0.21-0.191 0.34-0.249l0.006-0.002c0.134-0.058 0.282-0.087 0.444-0.087 0.163 0 0.311 0.029 0.444 0.087 0.134 0.058 0.25 0.142 0.347 0.251 0.098 0.11 0.173 0.242 0.226 0.398 0.054 0.154 0.081 0.33 0.081 0.527zM24.61 25.518v-0.126c0-0.137-0.012-0.257-0.037-0.361s-0.061-0.191-0.11-0.262c-0.048-0.071-0.107-0.124-0.177-0.159-0.070-0.037-0.149-0.055-0.239-0.055s-0.169 0.018-0.239 0.055c-0.068 0.035-0.127 0.088-0.175 0.159-0.047 0.071-0.083 0.158-0.108 0.262s-0.037 0.224-0.037 0.361v0.126c0 0.136 0.012 0.256 0.037 0.361 0.025 0.104 0.061 0.192 0.11 0.264 0.048 0.071 0.107 0.124 0.177 0.161s0.149 0.055 0.239 0.055c0.090 0 0.169-0.018 0.239-0.055s0.128-0.090 0.175-0.161c0.047-0.072 0.083-0.16 0.108-0.264 0.025-0.105 0.037-0.225 0.037-0.361zM26.869 26.070c0-0.046-0.007-0.087-0.021-0.124-0.013-0.038-0.038-0.072-0.074-0.103-0.037-0.032-0.088-0.063-0.154-0.094s-0.152-0.063-0.256-0.096c-0.136-0.044-0.246-0.087-0.353-0.136l0.020 0.008c-0.104-0.047-0.196-0.102-0.276-0.164-0.079-0.064-0.141-0.137-0.187-0.221-0.045-0.084-0.067-0.181-0.067-0.292 0-0.107 0.024-0.205 0.071-0.292 0.047-0.088 0.113-0.164 0.198-0.226 0.085-0.064 0.185-0.113 0.301-0.147 0.117-0.034 0.245-0.051 0.384-0.051 0.19 0 0.355 0.034 0.497 0.103s0.251 0.162 0.329 0.281c0.079 0.119 0.119 0.255 0.119 0.409h-0.527c0-0.075-0.016-0.141-0.048-0.198-0.031-0.058-0.078-0.103-0.142-0.136-0.063-0.033-0.142-0.049-0.237-0.049-0.092 0-0.169 0.014-0.23 0.042-0.061 0.027-0.107 0.064-0.138 0.111-0.031 0.046-0.046 0.098-0.046 0.156 0 0.044 0.011 0.083 0.032 0.119 0.022 0.035 0.055 0.068 0.099 0.099s0.097 0.060 0.161 0.087c0.064 0.027 0.137 0.054 0.221 0.080 0.14 0.042 0.264 0.090 0.37 0.143 0.107 0.053 0.197 0.113 0.269 0.179s0.126 0.141 0.163 0.225c0.037 0.084 0.055 0.179 0.055 0.285 0 0.112-0.022 0.212-0.065 0.301s-0.107 0.163-0.189 0.225-0.181 0.108-0.295 0.14c-0.114 0.032-0.242 0.048-0.384 0.048-0.127 0-0.253-0.016-0.377-0.049-0.124-0.034-0.236-0.085-0.338-0.154-0.099-0.068-0.18-0.156-0.239-0.258l-0.002-0.004c-0.060-0.106-0.090-0.232-0.090-0.377h0.532c0 0.080 0.012 0.148 0.037 0.203s0.060 0.1 0.104 0.134c0.046 0.034 0.1 0.059 0.163 0.074 0.064 0.015 0.133 0.023 0.209 0.023 0.092 0 0.167-0.013 0.226-0.039 0.060-0.026 0.104-0.062 0.133-0.108 0.029-0.046 0.044-0.098 0.044-0.156zM28.912 24.168v2.575h-0.529v-2.575h0.529zM29.704 24.168v0.416h-2.101v-0.416h2.101zM31.735 26.33v0.414h-1.371v-0.414h1.371zM30.538 24.168v2.575h-0.531v-2.575h0.531zM31.556 25.217v0.403h-1.192v-0.403h1.192zM31.733 24.168v0.416h-1.369v-0.416h1.369zM32.045 24.168h0.96c0.197 0 0.366 0.029 0.508 0.088 0.143 0.059 0.252 0.146 0.329 0.262s0.115 0.258 0.115 0.426c0 0.138-0.024 0.256-0.071 0.355s-0.113 0.181-0.195 0.245l-0.002 0.001c-0.084 0.065-0.182 0.117-0.295 0.156l-0.168 0.088h-0.835l-0.004-0.414h0.621c0.093 0 0.17-0.016 0.232-0.049s0.107-0.079 0.138-0.138c0.032-0.059 0.048-0.127 0.048-0.205 0-0.083-0.015-0.154-0.046-0.214s-0.077-0.106-0.14-0.138c-0.063-0.032-0.141-0.048-0.235-0.048h-0.43v2.16h-0.531v-2.575zM33.484 26.744l-0.587-1.148 0.561-0.004 0.594 1.127v0.025h-0.568zM36.27 25.825h-0.656v-0.414h0.656c0.101 0 0.184-0.017 0.248-0.049 0.064-0.034 0.11-0.081 0.14-0.142s0.044-0.128 0.044-0.203c0-0.077-0.015-0.148-0.044-0.214s-0.076-0.119-0.14-0.159-0.146-0.060-0.248-0.060h-0.472v2.16h-0.531v-2.575h1.003c0.202 0 0.374 0.037 0.518 0.11 0.145 0.072 0.256 0.172 0.333 0.299s0.115 0.273 0.115 0.437c0 0.166-0.038 0.31-0.115 0.432s-0.187 0.215-0.333 0.281c-0.144 0.066-0.317 0.099-0.518 0.099zM39.331 26.33v0.414h-1.371v-0.414h1.371zM38.133 24.168v2.575h-0.531v-2.575h0.531zM39.152 25.217v0.403h-1.192v-0.403h1.192zM39.329 24.168v0.416h-1.369v-0.416h1.369zM40.827 24.168v2.575h-0.529v-2.575h0.529zM41.62 24.168v0.416h-2.101v-0.416h2.101zM43.65 26.33v0.414h-1.371v-0.414h1.371zM42.453 24.168v2.575h-0.531v-2.575h0.531zM43.472 25.217v0.403h-1.192v-0.403h1.192zM43.648 24.168v0.416h-1.369v-0.416h1.369zM43.96 24.168h0.96c0.197 0 0.366 0.029 0.508 0.088 0.143 0.059 0.252 0.146 0.329 0.262s0.115 0.258 0.115 0.426c0 0.138-0.024 0.256-0.071 0.355s-0.113 0.181-0.195 0.245l-0.002 0.001c-0.084 0.065-0.182 0.117-0.295 0.156l-0.168 0.088h-0.835l-0.004-0.414h0.621c0.093 0 0.17-0.016 0.232-0.049s0.107-0.079 0.138-0.138c0.032-0.059 0.048-0.127 0.048-0.205 0-0.083-0.015-0.154-0.046-0.214s-0.077-0.106-0.14-0.138c-0.063-0.032-0.141-0.048-0.235-0.048h-0.43v2.16h-0.531v-2.575zM45.4 26.744l-0.587-1.148 0.561-0.004 0.594 1.127v0.025h-0.568zM47.621 26.070c0-0.046-0.007-0.087-0.021-0.124-0.013-0.038-0.038-0.072-0.074-0.103-0.037-0.032-0.088-0.063-0.154-0.094s-0.152-0.063-0.256-0.096c-0.136-0.044-0.246-0.087-0.353-0.136l0.020 0.008c-0.104-0.047-0.196-0.102-0.276-0.164-0.079-0.064-0.141-0.137-0.187-0.221-0.045-0.084-0.067-0.181-0.067-0.292 0-0.107 0.024-0.205 0.071-0.292 0.047-0.088 0.113-0.164 0.198-0.226 0.085-0.064 0.185-0.113 0.301-0.147 0.117-0.034 0.245-0.051 0.384-0.051 0.19 0 0.355 0.034 0.497 0.103s0.251 0.162 0.329 0.281c0.079 0.119 0.119 0.255 0.119 0.409h-0.527c0-0.075-0.016-0.141-0.048-0.198-0.031-0.058-0.078-0.103-0.142-0.136-0.063-0.033-0.142-0.049-0.237-0.049-0.092 0-0.169 0.014-0.23 0.042-0.061 0.027-0.107 0.064-0.138 0.111-0.031 0.046-0.046 0.098-0.046 0.156 0 0.001-0 0.002-0 0.003 0 0.043 0.012 0.083 0.032 0.117l-0.001-0.001c0.022 0.035 0.055 0.068 0.099 0.099s0.097 0.060 0.161 0.087c0.064 0.027 0.137 0.054 0.221 0.080 0.14 0.042 0.264 0.090 0.37 0.143 0.107 0.053 0.197 0.113 0.269 0.179s0.126 0.141 0.163 0.225c0.037 0.084 0.055 0.179 0.055 0.285 0 0.112-0.022 0.212-0.065 0.301s-0.107 0.163-0.189 0.225-0.181 0.108-0.295 0.14c-0.114 0.032-0.242 0.048-0.384 0.048-0.127 0-0.253-0.016-0.377-0.049-0.124-0.034-0.236-0.085-0.338-0.154-0.099-0.068-0.18-0.156-0.239-0.258l-0.002-0.004c-0.060-0.106-0.090-0.232-0.090-0.377h0.532c0 0.080 0.012 0.148 0.037 0.203s0.060 0.1 0.104 0.134c0.046 0.034 0.1 0.059 0.163 0.074 0.064 0.015 0.133 0.023 0.209 0.023 0.092 0 0.167-0.013 0.226-0.039 0.060-0.026 0.104-0.062 0.133-0.108 0.029-0.046 0.044-0.098 0.044-0.156z"></path>
</symbol>
<symbol id="icon-Logo4" viewBox="0 0 64 32">
<path d="M16.155 27.062c0.147 0.167 0.226 0.376 0.221 0.59 0.001 0.014 0.001 0.029 0.001 0.045 0 0.132-0.029 0.257-0.082 0.368l0.002-0.005c-0.059 0.129-0.15 0.244-0.264 0.337-0.286 0.198-0.64 0.294-0.997 0.272h-1.753v-3.738h1.717c0.339-0.021 0.675 0.067 0.951 0.248 0.111 0.085 0.199 0.192 0.256 0.314s0.084 0.253 0.077 0.386c0.010 0.206-0.061 0.409-0.199 0.572-0.133 0.149-0.317 0.251-0.523 0.292 0.233 0.039 0.442 0.152 0.592 0.32zM14.099 26.498h0.734c0.167 0.011 0.332-0.033 0.467-0.124 0.053-0.044 0.096-0.1 0.124-0.163l0.001-0.003c0.021-0.048 0.034-0.104 0.034-0.163 0-0.013-0.001-0.025-0.002-0.038l0 0.002c0.001-0.010 0.001-0.021 0.001-0.032 0-0.060-0.013-0.117-0.035-0.169l0.001 0.003c-0.029-0.066-0.070-0.122-0.122-0.166l-0.001-0c-0.138-0.094-0.309-0.139-0.481-0.126h-0.722v0.981zM15.371 27.932c0.057-0.045 0.103-0.103 0.134-0.169l0.001-0.003c0.025-0.053 0.039-0.114 0.039-0.179 0-0.010-0-0.020-0.001-0.031l0 0.001c0.001-0.008 0.001-0.017 0.001-0.027 0-0.067-0.015-0.13-0.042-0.187l0.001 0.003c-0.033-0.069-0.079-0.127-0.137-0.172l-0.001-0.001c-0.144-0.098-0.32-0.145-0.499-0.135h-0.77v1.028h0.78c0.176 0.009 0.349-0.036 0.493-0.13zM19.665 28.67l-0.955-1.461h-0.359v1.461h-0.822v-3.738h1.556c0.392-0.025 0.78 0.089 1.083 0.318 0.217 0.203 0.349 0.47 0.37 0.754s-0.069 0.565-0.254 0.793c-0.192 0.201-0.454 0.336-0.742 0.38l1.017 1.494h-0.894zM18.351 26.699h0.672c0.467 0 0.7-0.189 0.7-0.566 0.001-0.009 0.001-0.020 0.001-0.031 0-0.070-0.014-0.138-0.040-0.199l0.001 0.003c-0.032-0.076-0.077-0.14-0.134-0.193l-0-0c-0.148-0.112-0.337-0.167-0.529-0.152h-0.68l0.008 1.138zM24.157 27.917h-1.637l-0.289 0.752h-0.862l1.504-3.696h0.931l1.498 3.696h-0.862l-0.283-0.752zM23.938 27.351l-0.598-1.578-0.598 1.578h1.197zM29.78 28.669h-0.816l-1.829-2.542v2.542h-0.814v-3.738h0.814l1.829 2.557v-2.557h0.816v3.738zM34.435 27.775c-0.169 0.282-0.426 0.512-0.738 0.659-0.355 0.164-0.749 0.245-1.147 0.236h-1.452v-3.738h1.452c0.397-0.009 0.791 0.070 1.147 0.23 0.312 0.144 0.57 0.371 0.738 0.652 0.168 0.304 0.255 0.64 0.255 0.981s-0.087 0.677-0.255 0.981zM33.501 27.685c0.233-0.248 0.361-0.565 0.361-0.892s-0.128-0.644-0.361-0.892c-0.281-0.225-0.648-0.339-1.021-0.318h-0.566v2.42h0.566c0.373 0.021 0.74-0.093 1.021-0.318zM24.668 4.138s10.529 3.64 10.306 8.906v8.908s-10.521-3.641-10.302-8.908l-0.004-8.906zM44.353 19.867c1.989-1.253 4.289-2.029 6.69-2.257v-2.789c-2.767 0.976-5.113 2.747-6.69 5.046z"></path>
<path d="M43.159 20.707c1.628-3.001 4.449-5.316 7.884-6.47v-8.035s-14.995 5.185-14.678 12.685v12.683s0.668-0.232 1.719-0.667c0-0.405 0-0.814 0.048-1.225 0.31-3.482 2.118-6.709 5.026-8.97z"></path>
<path d="M41.733 25.419c0.088-0.959 0.274-1.841 0.549-2.682l-0.024 0.086c-1.811 1.953-2.907 4.377-3.135 6.93-0.022 0.241-0.034 0.482-0.040 0.73 0.852-0.374 1.843-0.842 2.884-1.392-0.179-0.779-0.282-1.673-0.282-2.591 0-0.381 0.018-0.758 0.052-1.129l-0.004 0.048zM42.329 25.465c-0.029 0.308-0.046 0.667-0.046 1.029 0 0.813 0.084 1.606 0.245 2.371l-0.013-0.075c4.097-2.244 8.7-5.712 8.523-9.904v-0.365c-2.927 0.3-5.665 1.471-7.795 3.335-0.498 1.155-0.806 2.371-0.913 3.609z"></path>
</symbol>
<symbol id="icon-Logo5" viewBox="0 0 64 32">
<path d="M32.257 16.601c-0.268-0.356-0.396-0.777-0.365-1.201v-1.741c0-0.534 0.121-0.939 0.363-1.217s0.658-0.416 1.247-0.414c0.554 0 0.947 0.118 1.179 0.354 0.254 0.301 0.377 0.67 0.349 1.041v0.409h-0.991v-0.414c0-0.016 0.001-0.035 0.001-0.054 0-0.124-0.011-0.246-0.031-0.364l0.002 0.013c-0.014-0.092-0.064-0.177-0.142-0.241-0.102-0.069-0.23-0.103-0.359-0.094-0.136-0.009-0.27 0.027-0.377 0.099-0.086 0.071-0.144 0.164-0.164 0.266-0.025 0.119-0.039 0.255-0.039 0.395 0 0.012 0 0.025 0 0.037l-0-0.002v2.113c-0.016 0.204 0.028 0.408 0.127 0.593 0.049 0.063 0.118 0.113 0.198 0.144 0.058 0.023 0.126 0.037 0.196 0.037 0.021 0 0.042-0.001 0.062-0.003l-0.002 0c0.127 0.009 0.253-0.025 0.351-0.096 0.081-0.069 0.133-0.159 0.148-0.257 0.020-0.114 0.031-0.246 0.031-0.38 0-0.015-0-0.030-0-0.045l0 0.002v-0.429h0.991v0.391c0.028 0.387-0.093 0.772-0.343 1.094-0.228 0.259-0.615 0.388-1.186 0.388s-1.001-0.138-1.245-0.425zM36.382 16.619c-0.25-0.271-0.375-0.666-0.375-1.188v-1.831c0-0.517 0.125-0.909 0.375-1.174s0.669-0.398 1.255-0.397c0.583 0 0.999 0.132 1.249 0.397 0.25 0.266 0.377 0.657 0.377 1.174v1.831c0 0.517-0.127 0.914-0.382 1.186s-0.669 0.409-1.245 0.409c-0.576 0-1.003-0.138-1.255-0.407zM38.098 16.179c0.090-0.17 0.13-0.356 0.119-0.542v-2.242c0.011-0.183-0.029-0.365-0.117-0.531-0.050-0.064-0.12-0.115-0.202-0.146-0.057-0.022-0.124-0.035-0.193-0.035-0.024 0-0.047 0.002-0.071 0.005l0.003-0c-0.020-0.003-0.043-0.004-0.067-0.004-0.070 0-0.137 0.013-0.199 0.037l0.004-0.001c-0.082 0.031-0.153 0.082-0.204 0.146-0.090 0.166-0.131 0.348-0.119 0.531v2.253c-0.013 0.186 0.028 0.372 0.119 0.542 0.058 0.057 0.129 0.103 0.209 0.134s0.167 0.048 0.255 0.048c0.088 0 0.175-0.016 0.255-0.048 0.081-0.032 0.151-0.077 0.209-0.134l-0 0v-0.011zM40.455 12.082h1.067l0.802 3.378 0.82-3.378h1.038l0.105 4.877h-0.767l-0.082-3.389-0.792 3.389h-0.615l-0.82-3.402-0.076 3.402h-0.775l0.096-4.877zM45.482 12.082h1.661c0.957 0 1.436 0.462 1.436 1.385 0 0.884-0.504 1.326-1.512 1.325h-0.566v2.167h-1.026l0.006-4.877zM46.902 14.166c0.101 0.011 0.204 0.003 0.302-0.024 0.101-0.027 0.188-0.072 0.264-0.132l-0.002 0.001c0.118-0.165 0.169-0.358 0.148-0.551 0.001-0.016 0.001-0.035 0.001-0.055 0-0.138-0.018-0.272-0.053-0.399l0.002 0.011c-0.016-0.052-0.042-0.097-0.076-0.134l0 0c-0.036-0.040-0.079-0.073-0.127-0.097l-0.002-0.001c-0.119-0.050-0.257-0.079-0.403-0.079-0.019 0-0.038 0.001-0.057 0.002l0.003-0h-0.398v1.457h0.398zM50.059 12.082h1.101l1.13 4.877h-0.956l-0.224-1.124h-0.983l-0.23 1.124h-0.97l1.13-4.877zM51 15.269l-0.384-2.047-0.384 2.047h0.767zM53.203 12.082h0.718l1.374 2.782v-2.782h0.851v4.877h-0.683l-1.382-2.904v2.904h-0.88l0.002-4.877zM58.14 15.099l-1.143-3.010h0.962l0.697 1.934 0.654-1.934h0.941l-1.128 3.010v1.859h-0.984v-1.859zM33.84 19.090v0.255h-0.837v1.982h-0.351v-1.982h-0.841v-0.255h2.029zM36.464 21.327h-0.271c-0.002 0-0.005 0-0.007 0-0.026 0-0.049-0.008-0.069-0.022l0 0c-0.020-0.012-0.035-0.030-0.045-0.051l-0-0.001-0.242-0.531h-1.161l-0.242 0.531c-0.008 0.024-0.020 0.044-0.037 0.060l-0 0c-0.020 0.013-0.044 0.021-0.070 0.021-0.002 0-0.004-0-0.006-0h-0.27l1.026-2.236h0.357l1.038 2.228zM34.765 20.497h0.968l-0.41-0.91c-0.026-0.057-0.052-0.127-0.073-0.199l-0.003-0.012c-0.014 0.043-0.027 0.083-0.039 0.119l-0.037 0.094-0.406 0.908zM38.232 21.108c0.064 0.003 0.129 0.003 0.193 0 0.062-0.006 0.118-0.015 0.172-0.028l-0.008 0.002c0.059-0.012 0.108-0.027 0.157-0.043l-0.009 0.003c0.045-0.016 0.090-0.035 0.137-0.055v-0.503h-0.41c-0.001 0-0.003 0-0.004 0-0.009 0-0.018-0.001-0.026-0.004l0.001 0c-0.010-0.003-0.018-0.008-0.026-0.014l0 0c-0.007-0.005-0.012-0.011-0.016-0.018l-0-0c-0.003-0.006-0.005-0.013-0.005-0.020 0-0.001 0-0.001 0-0.002v0-0.172h0.796v0.857c-0.124 0.078-0.269 0.141-0.422 0.18l-0.010 0.002c-0.072 0.019-0.159 0.035-0.248 0.045l-0.008 0.001c-0.089 0.009-0.192 0.014-0.297 0.014-0.001 0-0.002 0-0.003 0h0c-0.004 0-0.008 0-0.013 0-0.18 0-0.354-0.030-0.515-0.087l0.011 0.003c-0.154-0.053-0.293-0.133-0.41-0.234-0.114-0.102-0.204-0.222-0.265-0.354s-0.094-0.287-0.094-0.45c0-0.005 0-0.010 0-0.015v0.001c-0-0.004-0-0.009-0-0.014 0-0.164 0.034-0.32 0.095-0.461l-0.003 0.008c0.059-0.133 0.149-0.253 0.265-0.354 0.117-0.101 0.257-0.18 0.41-0.232 0.158-0.053 0.34-0.083 0.529-0.083 0.007 0 0.014 0 0.022 0h-0.001c0.001 0 0.002 0 0.003 0 0.1 0 0.198 0.007 0.293 0.021l-0.011-0.001c0.092 0.013 0.175 0.033 0.254 0.060l-0.010-0.003c0.072 0.023 0.141 0.053 0.205 0.088 0.063 0.035 0.123 0.074 0.178 0.117l-0.098 0.138c-0.008 0.013-0.020 0.023-0.033 0.030l-0 0c-0.014 0.007-0.030 0.012-0.047 0.012h-0c-0.023-0.001-0.045-0.007-0.064-0.018l0.001 0c-0.041-0.020-0.074-0.037-0.106-0.056l0.006 0.003c-0.039-0.021-0.084-0.042-0.131-0.058l-0.006-0.002c-0.052-0.019-0.116-0.036-0.181-0.048l-0.008-0.001c-0.074-0.012-0.16-0.020-0.247-0.020-0.005 0-0.009 0-0.014 0h0.001c-0.004-0-0.008-0-0.013-0-0.137 0-0.269 0.023-0.391 0.065l0.009-0.003c-0.114 0.040-0.217 0.1-0.302 0.177-0.085 0.080-0.15 0.175-0.191 0.278-0.044 0.111-0.069 0.239-0.069 0.373s0.025 0.262 0.071 0.38l-0.002-0.007c0.045 0.105 0.115 0.201 0.205 0.282 0.084 0.077 0.186 0.137 0.299 0.177 0.13 0.039 0.269 0.054 0.406 0.044zM41.501 21.072h1.12v0.255h-1.462v-2.237h0.351l-0.008 1.982zM43.786 21.327h-0.351v-2.237h0.351v2.237zM45.091 19.101c0.021 0.010 0.039 0.024 0.053 0.041l0 0 1.499 1.686c-0.001-0.012-0.002-0.026-0.002-0.040s0.001-0.028 0.002-0.042l-0 0.002v-1.666h0.306v2.246h-0.176c-0.004 0-0.008 0-0.012 0-0.023 0-0.045-0.005-0.065-0.013l0.001 0c-0.022-0.011-0.040-0.025-0.055-0.042l-0-0-1.497-1.684v1.739h-0.293v-2.237h0.183c0.021 0 0.040 0.004 0.059 0.011l-0.001-0zM49.531 19.090v0.246h-1.243v0.738h1.007v0.237h-1.007v0.763h1.243v0.246h-1.604v-2.231h1.604zM12.777 5.278l15.574 3.818v13.378l-15.574-3.816v-13.38zM11.778 4.138v15.17l17.57 4.308v-15.169l-17.57-4.31z"></path>
<path d="M21.195 30.659l-17.572-4.312v-15.169l17.572 4.31v15.171z"></path>
<path d="M12.069 5.107l15.371 3.77-6.537 5.645-15.373-3.772 6.539-5.643zM11.778 4.138l-8.155 7.041 17.572 4.31 8.153-7.041-17.57-4.31zM22.183 29.806l7.165-6.187-7.165-1.758v7.945z"></path>
</symbol>
<symbol id="icon-Logo" viewBox="0 0 64 32">
<path d="M22.943 4.279l4.231 4.005-7.854-0.005v19.434h20.528v-7.43l4.226 4.001v-20.005h-21.132zM39.663 19.813l-11.997-11.357h11.997v11.357zM35.938 24.871h-13.369v-13.070h0.945v12.185h12.424v0.885zM25.726 30.301l-0.494 1.017-0.494-1.017h-0.414l0.721 1.356v0.79h0.374v-0.79l0.719-1.356h-0.413zM26.347 32.447l0.174-0.5h0.831l0.175 0.5h0.389l-0.812-2.146h-0.335l-0.811 2.146h0.388zM26.936 30.757l0.311 0.89h-0.622l0.311-0.89zM28.903 31.595c-0.051 0.076-0.081 0.169-0.081 0.269 0 0.001 0 0.002 0 0.004v-0c0 0.181 0.063 0.328 0.19 0.441 0.128 0.112 0.298 0.168 0.51 0.168s0.395-0.057 0.548-0.172l0.121 0.143h0.416l-0.315-0.373c0.124-0.169 0.186-0.386 0.186-0.65h-0.311c0 0.144-0.030 0.276-0.090 0.394l-0.414-0.489 0.146-0.106c0.103-0.075 0.177-0.149 0.223-0.224 0.043-0.070 0.068-0.154 0.068-0.244 0-0.001 0-0.002 0-0.004v0c0-0.136-0.050-0.249-0.15-0.34-0.099-0.092-0.227-0.139-0.383-0.139-0.173 0-0.311 0.049-0.413 0.147s-0.153 0.23-0.153 0.398c0 0.069 0.016 0.14 0.049 0.214s0.092 0.163 0.175 0.268c-0.159 0.114-0.266 0.213-0.32 0.296zM29.871 32.070c-0.105 0.081-0.218 0.121-0.339 0.121-0.107 0-0.193-0.031-0.256-0.093s-0.096-0.142-0.096-0.242c0-0.115 0.059-0.217 0.177-0.307l0.046-0.032 0.469 0.553zM29.486 31.119c-0.101-0.125-0.152-0.228-0.152-0.311 0-0.072 0.021-0.131 0.062-0.178s0.097-0.071 0.167-0.071c0.065 0 0.118 0.020 0.161 0.060s0.063 0.087 0.063 0.143c0 0.084-0.030 0.154-0.091 0.208l-0.046 0.037-0.164 0.112zM32.98 32.285c0.147-0.129 0.232-0.308 0.254-0.537h-0.371c-0.020 0.153-0.066 0.263-0.14 0.329s-0.184 0.099-0.33 0.099c-0.16 0-0.282-0.061-0.366-0.183s-0.124-0.299-0.124-0.531v-0.19c0.002-0.229 0.046-0.402 0.133-0.52 0.087-0.119 0.212-0.178 0.374-0.178 0.14 0 0.245 0.034 0.317 0.103 0.073 0.068 0.118 0.179 0.136 0.333h0.371c-0.024-0.235-0.108-0.417-0.252-0.545s-0.335-0.193-0.572-0.193c-0.176 0-0.331 0.042-0.466 0.125-0.134 0.084-0.236 0.202-0.308 0.357s-0.108 0.333-0.108 0.535v0.201c0.003 0.198 0.040 0.371 0.111 0.52s0.171 0.265 0.301 0.346c0.131 0.081 0.282 0.121 0.453 0.121 0.245 0 0.441-0.064 0.588-0.192zM35.172 31.984c0.073-0.159 0.109-0.344 0.109-0.554v-0.119c-0.001-0.209-0.038-0.393-0.112-0.55s-0.178-0.279-0.314-0.363c-0.135-0.084-0.289-0.127-0.464-0.127s-0.33 0.043-0.466 0.128c-0.135 0.084-0.239 0.207-0.314 0.367s-0.111 0.345-0.111 0.554v0.121c0.001 0.205 0.038 0.387 0.112 0.544s0.18 0.279 0.315 0.364c0.137 0.084 0.292 0.127 0.466 0.127 0.176 0 0.331-0.042 0.466-0.127 0.136-0.086 0.24-0.207 0.313-0.366zM34.772 30.771c0.090 0.127 0.136 0.309 0.136 0.547v0.112c0 0.242-0.045 0.426-0.134 0.551s-0.215 0.189-0.38 0.189c-0.163 0-0.291-0.064-0.383-0.193s-0.137-0.311-0.137-0.547v-0.124c0.002-0.231 0.048-0.409 0.139-0.535 0.091-0.127 0.218-0.19 0.379-0.19 0.165 0 0.292 0.063 0.382 0.19z"></path>
</symbol>
<symbol id="icon-reloj-1" viewBox="0 0 31 32">
<path fill="#212121" style="fill: var(--color1, #212121)" d="M29.317 13.732c-0.002-7.585-6.152-13.733-13.738-13.732s-13.733 6.152-13.732 13.738c0.001 5.975 3.865 11.264 9.557 13.081 0.054 0.017 0.111 0.026 0.168 0.026 0.113-0 0.219-0.031 0.31-0.086l-0.003 0.002c0.12-0.072 0.21-0.183 0.253-0.316l0.001-0.004 3.469-10.994c0.948-0.005 1.713-0.778 1.708-1.726s-0.777-1.713-1.726-1.708c-0.268 0.001-0.521 0.064-0.746 0.176l0.010-0.004-4.582-4.583c-0.227-0.22-0.59-0.213-0.809 0.014-0.214 0.222-0.214 0.573 0 0.795l4.58 4.585c-0.351 0.717-0.151 1.583 0.481 2.072l-3.305 10.476c-6.531-2.406-9.876-9.651-7.47-16.182s9.651-9.876 16.182-7.47c6.531 2.406 9.876 9.651 7.47 16.182-1.207 3.214-3.593 5.749-6.618 7.123l-0.079 0.032-0.357-1.682c-0.065-0.309-0.369-0.507-0.678-0.441-0.102 0.022-0.191 0.069-0.263 0.134l0.001-0-3.443 3.074c-0.236 0.21-0.257 0.572-0.047 0.808 0.068 0.077 0.156 0.134 0.254 0.165l4.396 1.403c0.301 0.097 0.623-0.069 0.72-0.37 0.017-0.052 0.028-0.113 0.028-0.175 0-0.042-0.005-0.083-0.013-0.122l0.001 0.004-0.351-1.65c5.083-2.143 8.384-7.128 8.372-12.644zM15.583 13.16c0.316 0 0.572 0.256 0.572 0.572s-0.256 0.572-0.572 0.572c-0.316 0-0.572-0.256-0.572-0.572s0.256-0.572 0.572-0.572zM17.468 26.499l1.96-1.748 0.541 2.549-2.501-0.801z"></path>
<path fill="#2196f3" style="fill: var(--color2, #2196f3)" d="M15.010 2.858v1.145c0 0.316 0.256 0.572 0.572 0.572s0.572-0.256 0.572-0.572v-1.145c0-0.316-0.256-0.572-0.572-0.572s-0.572 0.256-0.572 0.572zM4.709 13.16c-0.316 0-0.572 0.256-0.572 0.572s0.256 0.572 0.572 0.572h1.145c0.316 0 0.572-0.256 0.572-0.572s-0.256-0.572-0.572-0.572h-1.145zM26.456 14.304c0.316 0 0.572-0.256 0.572-0.572s-0.256-0.572-0.572-0.572h-1.145c-0.316 0-0.572 0.256-0.572 0.572s0.256 0.572 0.572 0.572h1.145z"></path>
</symbol>
<symbol id="icon-sobre" viewBox="0 0 43 32">
<path d="M38.667 0h-34.667c-2.205 0-4 1.794-4 4v24c0 2.206 1.794 4 4 4h34.667c2.206 0 4-1.794 4-4v-24c0-2.205-1.794-4-4-4zM38.667 2.667c0.184 0 0.36 0.038 0.52 0.107l-0.009-0.003-17.844 15.466-17.845-15.466c0.151-0.065 0.327-0.103 0.511-0.103h34.667zM38.667 29.333h-34.667c-0.736-0-1.333-0.597-1.333-1.333v-22.413l17.793 15.421c0.232 0.202 0.538 0.325 0.872 0.325 0 0 0.001 0 0.001 0h-0c0 0 0.001 0 0.002 0 0.334 0 0.64-0.123 0.874-0.327l-0.002 0.001 17.793-15.421v22.413c0 0.736-0.598 1.333-1.333 1.333z"></path>
</symbol>
<symbol id="icon-telfono-inteligente" viewBox="0 0 20 32">
<path d="M17 0h-14c-1.654 0-3 1.346-3 3v26c0 1.654 1.346 3 3 3h14c1.654 0 3-1.346 3-3v-26c0-1.654-1.346-3-3-3zM3 2h14c0.552 0 1 0.448 1 1v21h-16v-21c0-0.552 0.448-1 1-1zM17 30h-14c-0.552-0-1-0.448-1-1v-3h16v3c0 0.552-0.448 1-1 1z"></path>
<path d="M4.707 27.478c0.391 0.365 0.391 0.956 0 1.321s-1.024 0.365-1.414 0c-0.391-0.365-0.391-0.956 0-1.321s1.024-0.365 1.414 0z"></path>
</symbol>
<symbol id="exit" viewBox="0 0 18 18"><path d="M15 4.1079 13.8921 3 9.5 7.3921 5.1079 3 4 4.1079 8.3921 8.5 4 12.8921 5.1079 14 9.5 9.6079 13.8921 14 15 12.8921 10.6079 8.5 15 4.1079Z"/></symbol>
<symbol id="icon-phone-modal" viewBox="0 0 32 32">
<path d="M27.419 20.852l-4.201-0.48c-0.115-0.014-0.248-0.022-0.384-0.022-0.91 0-1.733 0.369-2.329 0.965l-3.044 3.044c-4.681-2.382-8.519-6.203-10.901-10.901l3.060-3.060c0.596-0.596 0.965-1.419 0.965-2.329 0-0.135-0.008-0.268-0.024-0.399l0.002 0.016-0.479-4.169c-0.198-1.656-1.595-2.928-3.288-2.928-0.001 0-0.003 0-0.004 0h-2.861c-1.869 0-3.424 1.555-3.308 3.424 0.877 14.127 12.174 25.408 26.284 26.285 1.869 0.116 3.424-1.439 3.424-3.308v-2.861c0.016-1.671-1.241-3.077-2.911-3.275z"></path>
</symbol>
<symbol id="icon-mail-modal" viewBox="0 0 43 32">
<path d="M37.333 0h-32c-2.2 0-3.98 1.8-3.98 4l-0.020 24c0 2.2 1.8 4 4 4h32c2.2 0 4-1.8 4-4v-24c0-2.2-1.8-4-4-4zM36.533 8.5l-14.14 8.84c-0.64 0.4-1.48 0.4-2.12 0l-14.14-8.84c-0.5-0.32-0.8-0.86-0.8-1.44 0-1.34 1.46-2.14 2.6-1.44l13.4 8.38 13.4-8.38c1.14-0.7 2.6 0.1 2.6 1.44 0 0.58-0.3 1.12-0.8 1.44z"></path>
</symbol>
<symbol id="icon-person-modal" viewBox="0 0 32 32">
<path d="M16 16c4.42 0 8-3.58 8-8s-3.58-8-8-8-8 3.58-8 8 3.58 8 8 8zM16 20c-5.34 0-16 2.68-16 8v2c0 1.1 0.9 2 2 2h28c1.1 0 2-0.9 2-2v-2c0-5.32-10.66-8-16-8z"></path>
</symbol>
<symbol id="icon-send" viewBox="0 0 32 32">
<path d="M32 0l-32 18 10.227 3.788 15.773-14.788-11.998 16.186 0.010 0.004-0.012-0.004v8.814l5.735-6.691 7.265 2.691 5-28z"></path>
</symbol>
<symbol id="icon-check" viewBox="0 0 42 32">
<path d="M6.262 15.205l-0.22-0.21-3.307 3.132 0.243 0.232 11.407 10.882 24.477-23.35-3.285-3.134-21.192 20.198-8.124-7.75z"></path>
<path d="M35.581 2.313l-0.444 0.425-20.75 19.775-8.444-8.056v0.194l-0.344 0.325-2.837 2.688-0.494 0.462 0.487 0.469 11.631 11.094 0.438-0.425 24.5-23.369-0.481-0.463-2.825-2.694zM35.581 3.2l2.819 2.694-24.012 22.906-11.188-10.669 2.844-2.694 0.537 0.519 7.806 7.444z"></path>
</symbol>
<symbol id="icon-box" viewBox="0 0 34 32">
<path d="M30.341 3.556v24.889h-26.548v-24.889h26.548zM30.341 0h-26.548c-2.086 0-3.793 1.6-3.793 3.556v24.889c0 1.956 1.707 3.556 3.793 3.556h26.548c2.086 0 3.793-1.6 3.793-3.556v-24.889c0-1.956-1.707-3.556-3.793-3.556z"></path>
</symbol>
<symbol id="icon-menu_40px" viewBox="0 0 32 32">
<path d="M6.4 11.734v-2.134h19.2v2.134h-19.2zM6.4 17.066h19.2v-2.133h-19.2v2.133zM6.4 22.4h19.2v-2.134h-19.2v2.134z"></path>
</symbol>
</defs>
</svg>
